<?xml version="1.0" encoding="utf-8"?>
<!-- Generator: Adobe Illustrator 26.4.1, SVG Export Plug-In . SVG Version: 6.00 Build 0)  -->
<svg version="1.1" id="Layer_1" xmlns="http://www.w3.org/2000/svg" xmlns:xlink="http://www.w3.org/1999/xlink" x="0px" y="0px"
	 viewBox="0 0 600 174.7" style="enable-background:new 0 0 600 174.7;" xml:space="preserve">
<g>
	<g>
		<g>
			<path d="M231,61.3c4.6,12.4,13.5,21.5,26.7,25.3c-1.1,1-2.6,3.1-3.3,4.4c-13-4.3-21.7-13.3-26.9-26c-2.9,9.6-10.1,19.2-26.7,26
				c-0.6-1.2-2.1-3.1-3.1-4.1c16.8-6.9,23.2-16.5,25.5-25.7h-23.8v-4.9h24.8c0.3-2.6,0.4-5.1,0.4-7.4v-7.7h-22.9v-4.9h51.4v4.9
				h-23.5v7.7c0,2.3-0.1,4.8-0.3,7.3h26.6v4.9H231z"/>
			<path d="M308.3,45.7v8.8h21.2v22.9c0,2.8-0.7,4.3-2.7,5.1c-2.2,0.8-5.9,0.9-11.5,0.9c-0.2-1.5-1-3.5-1.7-4.8
				c4.4,0.1,8.4,0.1,9.5,0.1c1.2-0.1,1.5-0.4,1.5-1.3V59.3h-16.3V91h-4.9V59.3H288v24.3h-4.8V54.5h20.2v-8.8h-26.5v-4.8h27.9
				c-1-2.6-2.8-6-4.3-8.6l4.6-1.4c2,3,4.2,7.1,5.1,9.7l-0.8,0.3h26v4.8H308.3z"/>
			<path d="M377,72.2c-7.3,2.9-15,5.9-21,8.2l-1.7-4.9c2.6-0.8,5.7-1.8,9.1-3.1V52h-7.9v-4.6h7.9v-15h4.6v15h7.3V52H368v18.8
				c2.7-0.9,5.4-2,8.1-2.9L377,72.2z M414.5,84v4.5h-43.9V84H414.5z M413.5,39.4h-37.8v-4.5h37.8V39.4z M380.3,77.2v-31h28.6v31
				H380.3z M385,50.4V59h19.2v-8.6H385z M404.2,72.9v-9.8H385v9.8H404.2z"/>
			<path d="M452.6,48.3c-5.9,2-12,4.3-17,5.8l-1.8-4.2c4.6-1.3,11.5-3.4,18.3-5.5L452.6,48.3z M457.7,83.1c-5.3,3.1-13.5,6.2-20,8
				c-0.8-1-2.5-2.8-3.5-3.7c6.6-1.4,14.5-3.7,19.2-6.3L457.7,83.1z M450.6,41.6c-3-1.7-9.1-4-13.7-5.4l2.2-3.3
				c4.5,1.2,10.5,3.4,13.7,5L450.6,41.6z M442.4,54.4h42.3v26.2h-42.3V54.4z M447.1,62.2h32.8v-4.4h-32.8V62.2z M447.1,69.8h32.8
				v-4.5h-32.8V69.8z M447.1,77.5h32.8v-4.6h-32.8V77.5z M462.2,39.9c-1.6,2-3.5,3.9-5.8,5.6c-0.9-0.9-2.5-1.9-3.7-2.4
				c4.9-3.4,8.2-7.9,9.9-11.8l4.4,0.7c-0.7,1.4-1.4,2.7-2.2,4.1h22.4L488,36l3.3,1c-1.8,3.3-4.3,7-6.5,9.3l-3.9-1.4
				c1.3-1.2,2.7-3.1,3.9-5H462.2z M474.2,40.8c-0.2,0.6-0.5,1.2-0.8,1.8c3.7,4.4,10.4,7.7,17.8,9c-1,0.9-2.2,2.4-2.8,3.5
				c-6.8-1.6-13-5-17-9.4c-3.5,4.3-9.4,7.3-16.3,8.7c-0.4-1-1.4-2.6-2.1-3.4c8.2-1.5,15-5.2,16.7-10.9L474.2,40.8z M472.6,81.1
				c7,2.2,14.6,4.9,19.2,7.1l-4.3,2.8c-4.1-2.2-11.2-5-18.3-7.3L472.6,81.1z"/>
			<path d="M549.9,49.9c4.7,11.1,13,21.4,22,26.5c-1.2,1-2.9,2.8-3.7,4.1c-9.7-6.1-18.1-17.9-23-30.6h-0.9v24.1h15.2v4.8h-15.2v12.2
				h-5V78.9H524v-4.8h15.2V49.9h-1c-5,12.8-13.5,24.4-22.9,30.8c-0.8-1.2-2.4-2.9-3.5-3.9c8.6-5.3,16.7-15.9,21.5-27h-19.8v-4.8
				h25.7V31.4h5v13.7h25.9v4.8H549.9z"/>
			<path d="M207.4,115.6h-10.7v-4.3h26.4v4.3h-10.7v28.7h-5.1V115.6z"/>
			<path d="M233.2,140.1l3-3.5c2.5,2.4,5.8,3.9,9.4,3.9c4.2,0,6.5-1.9,6.5-4.6c0-3.2-2.4-4.1-5.7-5.5l-4.7-2
				c-3.4-1.3-7.1-3.8-7.1-8.6c0-5.1,4.6-9,11.1-9c4.1,0,7.8,1.6,10.4,4.1l-2.6,3.2c-2.2-1.8-4.6-2.9-8-2.9c-3.5,0-5.8,1.6-5.8,4.3
				c0,2.9,2.8,3.9,5.8,5l4.5,2c4.1,1.6,7.2,4,7.2,8.8c0,5.3-4.5,9.6-12,9.6C240.6,145,236.3,143.2,233.2,140.1z"/>
			<path d="M277.9,132.8l-11-21.4h5.4l4.5,9.3c1.2,2.6,2.3,5,3.6,7.7h0.2c1.2-2.6,2.5-5.1,3.7-7.7l4.4-9.3h5.2l-11,21.4v11.6h-5.1
				V132.8z"/>
			<path d="M339.1,127.9c0-10.7,6.4-17.2,15-17.2c4,0,7.2,1.9,9.3,4.1l-2.8,3.2c-1.7-1.7-3.7-2.8-6.4-2.8c-5.9,0-9.8,4.8-9.8,12.6
				c0,7.9,3.9,12.8,9.9,12.8c2.9,0,5.1-1.3,7-3.4l2.8,3.1c-2.6,3.1-6,4.8-10.4,4.8C345.5,145,339.1,138.8,339.1,127.9z"/>
			<path d="M394.8,144.4h5.4l-10.9-33h-5.9l-10.9,33h5.2l2.8-9.5H392L394.8,144.4z M381.7,130.9l1.3-4.5c1.1-3.6,2.1-7.3,3.1-11h0.2
				c1,3.7,2,7.4,3.1,11l1.3,4.5H381.7z"/>
			<path d="M411.3,111.4h10.4c7.3,0,12.4,2.5,12.4,9.9c0,7.2-5.2,10.5-12.4,10.5h-5.3v12.6h-5.1V111.4z M421.2,127.7
				c5.3,0,7.9-2,7.9-6.4c0-4.4-2.6-5.9-7.9-5.9h-4.9v12.3H421.2z"/>
			<path d="M446.3,140.1h8.1v-24.5h-8.1v-4.3h21.2v4.3h-8.1v24.5h8.1v4.3h-21.2V140.1z"/>
			<path d="M489.7,115.6H479v-4.3h26.4v4.3h-10.7v28.7h-5.1V115.6z"/>
			<path d="M524.6,111.4h5.9l10.9,33H536l-5.3-18c-1.1-3.6-2.2-7.3-3.1-11h-0.2c-1,3.7-2,7.4-3.1,11l-5.4,18h-5.2L524.6,111.4z
				 M519.8,130.9h15.3v4h-15.3V130.9z"/>
			<path d="M554.1,111.4h5v28.7H575v4.3h-20.9V111.4z"/>
		</g>
	</g>
	<g>
		<path d="M173.6,85.9V67.7c0,0,0,0,0,0c-20.7,0-39.3,8.8-52.5,22.7c-5.1,5.5-9.5,11.7-12.7,18.6c3.3,6.9,7.6,13.1,12.7,18.6
			c13.2,14,31.8,22.7,52.5,22.7v-18.2c0,0,0,0,0,0c-18.3,0-34.4-9.1-44.2-23.1C139.2,95,155.4,85.9,173.6,85.9z"/>
		<path d="M173.6,98.2C173.6,98.2,173.6,98.2,173.6,98.2c-7.6,0-14.4,2.3-19.2,5.9c-1.9,1.4-3.5,3.1-4.7,4.8
			c1.2,1.8,2.8,3.4,4.7,4.8c4.8,3.6,11.6,5.9,19.2,5.9V98.2z"/>
		<path d="M76.2,25.6H58c0,0,0,0,0,0c0,20.7,8.8,39.3,22.7,52.5c5.5,5.1,11.7,9.5,18.6,12.7c6.9-3.3,13.1-7.6,18.6-12.7
			c14-13.2,22.7-31.8,22.7-52.5h-18.2c0,0,0,0,0,0c0,18.3-9.1,34.4-23.1,44.2C85.4,60,76.2,43.8,76.2,25.6z"/>
		<path d="M25,132.1v18.2c0,0,0,0,0,0c20.7,0,39.3-8.8,52.5-22.7c5.1-5.5,9.5-11.7,12.7-18.6c-3.3-6.9-7.6-13.1-12.7-18.6
			C64.3,76.4,45.7,67.7,25,67.7v18.2c0,0,0,0,0,0c18.3,0,34.4,9.1,44.2,23.1C59.4,122.9,43.3,132.1,25,132.1z"/>
	</g>
</g>
</svg>
