<svg id="Layer_1" data-name="Layer 1" xmlns="http://www.w3.org/2000/svg" viewBox="0 0 1935.9 469.56"><defs><style>.cls-1,.cls-2{fill:#fff;}.cls-2{stroke:#fff;stroke-linecap:round;stroke-linejoin:round;stroke-width:3px;fill-rule:evenodd;}</style></defs><path id="path2" class="cls-1" d="M328.49,81.44C208.7,81.44,111.21,179,111.21,298.72S208.75,516,328.49,516s217.28-97.54,217.28-217.28S448.23,81.44,328.49,81.44Zm-.32,19.3a14.5,14.5,0,1,1-.42,0Zm32.73,23.54a175.92,175.92,0,0,1,120.43,85.77l-16.87,38.06a13.15,13.15,0,0,0,6.62,17.24l32.45,14.39a175.75,175.75,0,0,1,.37,30.52H485.83c-1.79,0-2.52,1.19-2.52,2.94v8.27c0,19.49-11,23.77-20.64,24.83-9.2,1.05-19.36-3.87-20.64-9.47-5.43-30.48-14.44-37-28.69-48.22,17.7-11.22,36.09-27.81,36.09-50,0-23.95-16.41-39-27.58-46.42-15.72-10.35-33.1-12.41-37.79-12.41H197.44a175.92,175.92,0,0,1,98.41-55.53l22,23.07a13,13,0,0,0,18.39.42ZM157.73,230.09a14.5,14.5,0,1,1-.42,0Zm340.84.65a14.16,14.16,0,1,1-.42,0ZM184.66,233h24.92V345.38H159.29a175.88,175.88,0,0,1-5.7-67.16l30.8-13.7A13,13,0,0,0,191,247.33Zm104,1.2H348c3.08,0,21.65,3.54,21.65,17.47,0,11.53-14.25,15.67-26,15.67H288.59Zm0,80.72H334.1c4.14,0,22.2,1.19,27.95,24.27,1.79,7.08,5.79,30.15,8.5,37.55,2.71,8.28,13.7,24.82,25.42,24.82h74.19a175.84,175.84,0,0,1-16.27,18.85L423.69,414a13.05,13.05,0,0,0-15.49,10L401,457.44a175.89,175.89,0,0,1-146.68-.69l-7.17-33.46a13,13,0,0,0-15.45-10l-29.56,6.34a177.22,177.22,0,0,1-15.26-18H330.65c1.61,0,2.71-.27,2.71-1.79V349c0-1.47-1.1-1.79-2.71-1.79H288.59ZM222.31,431.38a14.16,14.16,0,1,1-.42,0ZM434,432a14.5,14.5,0,1,1-.42,0Z" transform="translate(-93.71 -63.94)"/><path id="path4" class="cls-2" d="M533.64,298.72c0,113.3-91.85,205.15-205.15,205.15S123.34,412,123.34,298.72h0c0-113.3,91.85-205.15,205.15-205.15S533.64,185.42,533.64,298.72Zm-3.86-19.81,32,19.81-32,19.81,27.49,25.7-35.22,13.19L544,388l-37.19,6.06,15.63,34.3L484.82,427l8.64,36.68-36.68-8.64,1.34,37.65-34.3-15.63-6.06,37.19-30.57-22L374,527.5,348.3,500l-19.81,32-19.81-32L283,527.5l-13.19-35.21-30.57,22-6.06-37.19L198.87,492.7l1.33-37.65-36.68,8.64L172.16,427l-37.65,1.34,15.63-34.3L113,388l22-30.57L99.72,344.23l27.48-25.7-32-19.81,32-19.81-27.48-25.7L134.93,240l-22-30.57,37.19-6.06L134.51,169.1l37.65,1.33-8.64-36.68,36.68,8.64-1.33-37.65,34.29,15.63,6.06-37.19,30.57,22L283,70l25.7,27.48,19.81-32,19.81,32L374,70l13.19,35.21,30.57-22,6.06,37.19,34.3-15.63-1.34,37.65,36.68-8.64-8.64,36.68,37.65-1.33-15.63,34.29L544,209.45l-22,30.57,35.22,13.19Z" transform="translate(-93.71 -63.94)"/><path class="cls-1" d="M653.62,377.5V200H775.38v42.5h-73V272h59.5v39.5h-59.5v66Z" transform="translate(-93.71 -63.94)"/><path class="cls-1" d="M848.62,380q-17.49,0-31-5.41a63.06,63.06,0,0,1-36.37-36.39,69.9,69.9,0,0,1-4.63-25.33,70.94,70.94,0,0,1,4.63-25.45A61.88,61.88,0,0,1,795,265.91a64.94,64.94,0,0,1,22.62-14.75q13.5-5.41,31-5.41,17.76,0,31.13,5.41a65.36,65.36,0,0,1,22.5,14.75A62.17,62.17,0,0,1,916,287.42a71.15,71.15,0,0,1,4.62,25.45A70.11,70.11,0,0,1,916,338.2a63.31,63.31,0,0,1-36.25,36.39Q866.37,380,848.62,380Zm-23.25-67.13a32.68,32.68,0,0,0,3,14.53,22.1,22.1,0,0,0,8.25,9.36,23.84,23.84,0,0,0,24,0,22.1,22.1,0,0,0,8.25-9.36,36.66,36.66,0,0,0,0-29,22.1,22.1,0,0,0-8.25-9.36,23.84,23.84,0,0,0-24,0,22.1,22.1,0,0,0-8.25,9.36A32.67,32.67,0,0,0,825.37,312.87Z" transform="translate(-93.71 -63.94)"/><path class="cls-1" d="M936.12,333.12V247.75h47.5v74.34q0,8.34,3.88,13.12A12.92,12.92,0,0,0,998.12,340a30.12,30.12,0,0,0,7.5-.95,22.18,22.18,0,0,0,7.63-3.79,36.1,36.1,0,0,0,7.62-8.06V247.75h47.5v77.49c0,4.41.67,7.48,2,9.19s3.67,2.74,7,3.07v40q-6.24,1.25-11.25,1.87a71.08,71.08,0,0,1-8.75.63q-12,0-19-4.45t-9-13.57l-1-4.68a53.11,53.11,0,0,1-22.12,17.39A75.81,75.81,0,0,1,977.12,380q-19.74,0-30.37-12.09T936.12,333.12Z" transform="translate(-93.71 -63.94)"/><path class="cls-1" d="M1229.12,377.5h-47.5V305.3q0-9.51-4.38-13.78a14,14,0,0,0-10.12-4.27,19.17,19.17,0,0,0-8.5,2.24,29,29,0,0,0-8.25,6.27,32.07,32.07,0,0,0-6,9.23V377.5h-47.5V247.75h42.75v19.63a42.06,42.06,0,0,1,12-11.92,55,55,0,0,1,16.75-7.25,82.63,82.63,0,0,1,20.75-2.46q13.5,0,21.5,4.67a31.1,31.1,0,0,1,12,12,47.75,47.75,0,0,1,5.25,15.37,95.56,95.56,0,0,1,1.25,14.62Z" transform="translate(-93.71 -63.94)"/><path class="cls-1" d="M1245.12,312.63q0-19.19,7.37-34.3a59.42,59.42,0,0,1,20.38-23.85,52.09,52.09,0,0,1,29.75-8.73,48.28,48.28,0,0,1,23.5,5.87,39.47,39.47,0,0,1,16.25,16.13V195h47.5V325c0,4.5.66,7.62,2,9.37s3.66,2.8,7,3.13v40a105.05,105.05,0,0,1-20,2.5q-12,0-19-4.5t-9-13.75l-1-4.75a41.09,41.09,0,0,1-18.25,17.5,56.19,56.19,0,0,1-24.5,5.5,62,62,0,0,1-24.88-4.92,58.48,58.48,0,0,1-19.75-13.89,61.77,61.77,0,0,1-12.87-21.39A79.23,79.23,0,0,1,1245.12,312.63Zm97.5,14.41V304.47a32.09,32.09,0,0,0-6.13-9.72,30.33,30.33,0,0,0-8.62-6.6,21.74,21.74,0,0,0-19.38-.24,23.48,23.48,0,0,0-7.62,6,27.59,27.59,0,0,0-5,8.89,32.55,32.55,0,0,0-1.75,10.79A29.5,29.5,0,0,0,1296,324.4a23.58,23.58,0,0,0,5.38,8.28,24.61,24.61,0,0,0,8.25,5.4,27.73,27.73,0,0,0,10.5,1.92,24,24,0,0,0,6.5-.84,25.74,25.74,0,0,0,5.75-2.4,27.24,27.24,0,0,0,5.37-4.08A41.21,41.21,0,0,0,1342.62,327Z" transform="translate(-93.71 -63.94)"/><path class="cls-1" d="M1411.11,338.48a38,38,0,0,1,7.25-23q7.26-9.94,20.13-15.6t29.37-5.65a82.11,82.11,0,0,1,14.63,1.25,44,44,0,0,1,11.87,3.75v-4q0-8.89-5.37-13.2t-17.38-4.3a58.14,58.14,0,0,0-20.62,3.62A100.56,100.56,0,0,0,1430.86,292l-13.75-29.5A103.44,103.44,0,0,1,1445,249.87a115.14,115.14,0,0,1,31.37-4.12q31.26,0,48.38,13.79t17.12,40.87V325.3q0,6.58,2,9.15c1.34,1.71,3.67,2.72,7,3.05v40q-5.74,1.25-10.87,1.87a75.75,75.75,0,0,1-9.13.63q-12.75,0-19.37-4.63t-8.63-13.62l-1-4.75a60.35,60.35,0,0,1-20.25,17.12,53,53,0,0,1-24.5,5.88,50.65,50.65,0,0,1-23.5-5.41,41.69,41.69,0,0,1-16.5-14.86A38.85,38.85,0,0,1,1411.11,338.48Zm77,2.79a19.62,19.62,0,0,0,4.5-4.13,7.44,7.44,0,0,0,1.75-4.61v-9.22a60.5,60.5,0,0,0-9.12-2.37,51,51,0,0,0-9.13-.94,24.83,24.83,0,0,0-14.37,4q-5.88,4-5.88,10.16a10,10,0,0,0,2,6,13.31,13.31,0,0,0,5.5,4.25,19.65,19.65,0,0,0,8,1.54,33.08,33.08,0,0,0,8.88-1.3A28.26,28.26,0,0,0,1488.11,341.27Z" transform="translate(-93.71 -63.94)"/><path class="cls-1" d="M1658.87,370q-6.51,2.75-13.88,5.12a103.71,103.71,0,0,1-15,3.63,92.3,92.3,0,0,1-14.87,1.25,53.49,53.49,0,0,1-19.75-3.55A30,30,0,0,1,1581,364.69q-5.38-8.19-5.37-22.16v-59h-16.25V247.75h16.25V206.5h47.5v41.25h25.75V283.5h-25.75v41.92c0,4.18.91,7.11,2.75,8.8a10.62,10.62,0,0,0,7.5,2.53,30.47,30.47,0,0,0,8-1.25,93.06,93.06,0,0,0,9-3Z" transform="translate(-93.71 -63.94)"/><path class="cls-1" d="M1672.36,235V195h47.5v40Zm0,142.5V246h47.5V377.5Z" transform="translate(-93.71 -63.94)"/><path class="cls-1" d="M1808.61,380q-17.5,0-31-5.41a63.06,63.06,0,0,1-36.37-36.39,69.9,69.9,0,0,1-4.63-25.33,70.94,70.94,0,0,1,4.63-25.45A61.88,61.88,0,0,1,1755,265.91a64.94,64.94,0,0,1,22.62-14.75q13.5-5.41,31-5.41,17.75,0,31.13,5.41a65.36,65.36,0,0,1,22.5,14.75A62.17,62.17,0,0,1,1876,287.42a71.15,71.15,0,0,1,4.62,25.45A70.11,70.11,0,0,1,1876,338.2a63.31,63.31,0,0,1-36.25,36.39Q1826.36,380,1808.61,380Zm-23.25-67.13a32.68,32.68,0,0,0,3,14.53,22.1,22.1,0,0,0,8.25,9.36,23.84,23.84,0,0,0,24,0,22.1,22.1,0,0,0,8.25-9.36,36.66,36.66,0,0,0,0-29,22.1,22.1,0,0,0-8.25-9.36,23.84,23.84,0,0,0-24,0,22.1,22.1,0,0,0-8.25,9.36A32.67,32.67,0,0,0,1785.36,312.87Z" transform="translate(-93.71 -63.94)"/><path class="cls-1" d="M2029.61,377.5h-47.5V305.3q0-9.51-4.37-13.78a14.07,14.07,0,0,0-10.13-4.27,19.17,19.17,0,0,0-8.5,2.24,29,29,0,0,0-8.25,6.27,32.07,32.07,0,0,0-6,9.23V377.5h-47.5V247.75h42.75v19.63a42.31,42.31,0,0,1,12-11.92,55.1,55.1,0,0,1,16.75-7.25,82.63,82.63,0,0,1,20.75-2.46q13.5,0,21.5,4.67a31.1,31.1,0,0,1,12,12,47.28,47.28,0,0,1,5.25,15.37,95.56,95.56,0,0,1,1.25,14.62Z" transform="translate(-93.71 -63.94)"/></svg>