<svg width="206" height="48" viewBox="0 0 206 48" fill="none" xmlns="http://www.w3.org/2000/svg">
<g clip-path="url(#clip0)">
<path d="M54.125 0V48H64.3086V34.0516H68.2332V48H88.296V37.9317H78.4169V34.0516H88.296V0H54.125ZM78.1124 23.9833H64.2748V10.0683H78.1124V23.9833Z" fill="#A4A6A7"/>
<path d="M117.358 37.9317H103.521V0H93.3711V48H127.508V0H117.358V37.9317Z" fill="#A4A6A7"/>
<path d="M132.583 0V29.0341H156.57V37.9317H132.583V48H166.754V18.9659H142.767V10.0683H166.754V0H132.583Z" fill="#A4A6A7"/>
<path d="M171.829 0V10.0683H183.84V48H193.99V10.0683H206V0H171.829Z" fill="#A4A6A7"/>
<path d="M49.05 0H0.5V48H49.05V0Z" fill="#CD412B"/>
<path d="M16.4015 21.6417L6.08252 19.9692V30.1379L16.4015 28.4654V21.6417Z" fill="#1E2020"/>
<path d="M21.5779 21.6416H18.127V28.4318H21.5779V21.6416Z" fill="#1E2020"/>
<path d="M29.2915 15.7211L30.9832 5.51904H20.698L22.3896 15.7211H29.2915Z" fill="#1E2020"/>
<path d="M29.2577 17.427H22.3896V20.8388H29.2577V17.427Z" fill="#1E2020"/>
<path d="M25.8401 22.6419L23.3999 25.0544L25.8401 27.467L28.2802 25.0544L25.8401 22.6419Z" fill="#1E2020"/>
<path d="M30.1038 34.0516L36.1598 42.4808L43.4677 35.2558L34.9418 29.2683L30.1038 34.0516Z" fill="#1E2020"/>
<path d="M31.3042 25.6617L26.4478 30.4631L28.8879 32.8757L33.7443 28.0743L31.3042 25.6617Z" fill="#1E2020"/>
</g>
<defs>
<clipPath id="clip0">
<rect width="205.5" height="48" fill="white" transform="translate(0.5)"/>
</clipPath>
</defs>
</svg>