<svg id="Layer_1" data-name="Layer 1" xmlns="http://www.w3.org/2000/svg" xmlns:xlink="http://www.w3.org/1999/xlink" viewBox="0 0 669.2 215"><defs><style>.cls-1{fill:#fff;}</style></defs><path class="cls-1" d="M275.27,135.46V80.25h25.34a16.87,16.87,0,0,1,7.47,1.67A19.55,19.55,0,0,1,314,86.28a20.5,20.5,0,0,1,3.85,6.14,18.5,18.5,0,0,1,1.39,7,19.64,19.64,0,0,1-2.09,9,18.31,18.31,0,0,1-5.84,6.8l11.67,20.3H305.82l-9.72-17h-5.67v17Zm15.16-30.17H300a3.38,3.38,0,0,0,2.61-1.56,7,7,0,0,0,1.2-4.35A6.25,6.25,0,0,0,302.4,95a3.93,3.93,0,0,0-2.8-1.52h-9.17Z" transform="translate(-34 -41)"/><path class="cls-1" d="M338.4,136.23q-6.22,0-9.49-3.77t-3.26-11V94.56h14.77v23.56a6.47,6.47,0,0,0,1.21,4.2,4,4,0,0,0,3.3,1.47,8.87,8.87,0,0,0,3.5-.77,9.16,9.16,0,0,0,3.58-3.43v-25h14.77v24.57a5,5,0,0,0,.62,2.91,3,3,0,0,0,2.18,1v12.44a33.12,33.12,0,0,1-6.22.77q-7.55,0-8.71-5.67l-.31-1.48a16.63,16.63,0,0,1-6.84,5.48A23.19,23.19,0,0,1,338.4,136.23Z" transform="translate(-34 -41)"/><path class="cls-1" d="M392.51,136.23A32.2,32.2,0,0,1,382,134.48a23.67,23.67,0,0,1-8.71-5.09l5.05-8.86a38.67,38.67,0,0,0,7.35,4,17.65,17.65,0,0,0,6.49,1.4c2.08,0,3.11-.64,3.11-1.94a2.23,2.23,0,0,0-1.2-1.87,21,21,0,0,0-4.71-1.79,68.7,68.7,0,0,1-7.27-2.44,21.52,21.52,0,0,1-4.74-2.61,8.17,8.17,0,0,1-2.6-3.11,9.67,9.67,0,0,1-.78-4,13.39,13.39,0,0,1,1.24-5.76,14,14,0,0,1,3.46-4.58,15.49,15.49,0,0,1,5.29-3,20.69,20.69,0,0,1,6.73-1,31,31,0,0,1,8.59,1.17,22,22,0,0,1,8.2,4.74l-5.6,8.87a40.08,40.08,0,0,0-6.37-3.54,12.77,12.77,0,0,0-4.82-1,4.29,4.29,0,0,0-2.18.5,1.73,1.73,0,0,0-.86,1.6,2.17,2.17,0,0,0,1.25,1.9,21,21,0,0,0,4.9,1.67A57.3,57.3,0,0,1,401.3,112a19.78,19.78,0,0,1,4.86,2.8,8.64,8.64,0,0,1,2.6,3.42,11.56,11.56,0,0,1,.78,4.4,13.33,13.33,0,0,1-1.16,5.67,12,12,0,0,1-3.39,4.28,15.31,15.31,0,0,1-5.36,2.72A25.12,25.12,0,0,1,392.51,136.23Z" transform="translate(-34 -41)"/><path class="cls-1" d="M442.82,133.2a45.89,45.89,0,0,1-6.65,2.22,28.64,28.64,0,0,1-7,.89,17.9,17.9,0,0,1-4.74-.62,10.49,10.49,0,0,1-3.93-2A9.73,9.73,0,0,1,417.9,130a14.11,14.11,0,0,1-1-5.59V105.68h-5.06V94.56h5.06V81.73H431.7V94.56h8v11.12h-8v13.53a3.77,3.77,0,0,0,.86,2.83,3.2,3.2,0,0,0,2.33.82,10.67,10.67,0,0,0,2.49-.35,17.57,17.57,0,0,0,2.8-1Z" transform="translate(-34 -41)"/><path class="cls-1" d="M275.27,209.83V154.62h37.86v13.22h-22.7V177h18.5V189.3h-18.5v20.53Z" transform="translate(-34 -41)"/><path class="cls-1" d="M335.91,210.6a24.93,24.93,0,0,1-9.68-1.74,21.21,21.21,0,0,1-7-4.67,19.28,19.28,0,0,1-4.27-6.76,23.22,23.22,0,0,1,0-16.1,19.28,19.28,0,0,1,4.27-6.76,21.05,21.05,0,0,1,7-4.67,27.54,27.54,0,0,1,19.32,0,20.83,20.83,0,0,1,7,4.67,19.31,19.31,0,0,1,4.28,6.76,23.37,23.37,0,0,1,0,16.1,19.31,19.31,0,0,1-4.28,6.76,21,21,0,0,1-7,4.67A25,25,0,0,1,335.91,210.6Zm-7.23-21.22a9.5,9.5,0,0,0,2,6.45,7,7,0,0,0,10.42,0,11.31,11.31,0,0,0,0-12.9,7,7,0,0,0-10.42,0A9.5,9.5,0,0,0,328.68,189.38Z" transform="translate(-34 -41)"/><path class="cls-1" d="M375.88,210.6q-6.22,0-9.49-3.77t-3.27-11v-26.9H377.9v23.56a6.52,6.52,0,0,0,1.2,4.2,4.06,4.06,0,0,0,3.31,1.47,8.73,8.73,0,0,0,3.5-.77,9.12,9.12,0,0,0,3.57-3.42v-25h14.78V193.5a5,5,0,0,0,.62,2.92,3,3,0,0,0,2.17,1v12.44a33,33,0,0,1-6.22.77c-5,0-7.93-1.89-8.7-5.67l-.32-1.48a16.5,16.5,0,0,1-6.84,5.48A23.1,23.1,0,0,1,375.88,210.6Z" transform="translate(-34 -41)"/><path class="cls-1" d="M454.25,209.83H439.48v-23a6,6,0,0,0-1.37-4.39,4.28,4.28,0,0,0-3.14-1.36,6.57,6.57,0,0,0-4,1.63,9.71,9.71,0,0,0-3.11,4.2v22.94H413.12v-40.9h13.29V175a13.84,13.84,0,0,1,6.11-5.09,22.75,22.75,0,0,1,9.29-1.75,12.59,12.59,0,0,1,6.65,1.52,10.67,10.67,0,0,1,3.73,3.77,14,14,0,0,1,1.67,4.82,31.33,31.33,0,0,1,.39,4.67Z" transform="translate(-34 -41)"/><path class="cls-1" d="M478.51,210.6a19,19,0,0,1-7.74-1.55,17.8,17.8,0,0,1-6.1-4.39,20.57,20.57,0,0,1-4-6.77,24.74,24.74,0,0,1-1.44-8.59,25.73,25.73,0,0,1,1.33-8.4,20.78,20.78,0,0,1,3.69-6.72,17,17,0,0,1,5.64-4.43,16.12,16.12,0,0,1,7.23-1.6,15.08,15.08,0,0,1,7.27,1.79,12.44,12.44,0,0,1,5.09,5.05V153.07h14.77V193.5a5.08,5.08,0,0,0,.62,2.92,3,3,0,0,0,2.18,1v12.44a33,33,0,0,1-6.22.77q-7.54,0-8.71-5.67l-.31-1.48a12.76,12.76,0,0,1-5.67,5.44A17.48,17.48,0,0,1,478.51,210.6Zm4-12.44c2.69,0,5-1.4,7-4.19v-7.31a10.5,10.5,0,0,0-3.19-4.4,7,7,0,0,0-4.43-1.67,6.56,6.56,0,0,0-3,.7,7.13,7.13,0,0,0-2.33,2,9.88,9.88,0,0,0-1.55,2.87,10.33,10.33,0,0,0-.59,3.5,8.64,8.64,0,0,0,2.22,6.22A7.7,7.7,0,0,0,482.55,198.16Z" transform="translate(-34 -41)"/><path class="cls-1" d="M525.16,210.6a15.61,15.61,0,0,1-5.68-1,14,14,0,0,1-4.55-2.76,12.62,12.62,0,0,1-4.08-9.37,12.21,12.21,0,0,1,1.32-5.67,13.52,13.52,0,0,1,3.66-4.43,16.56,16.56,0,0,1,5.56-2.88,23.81,23.81,0,0,1,7.11-1,19.26,19.26,0,0,1,8.24,1.55v-1.24a5.29,5.29,0,0,0-1.67-4.28c-1.11-.93-2.92-1.4-5.4-1.4a18,18,0,0,0-6.46,1.13,31.87,31.87,0,0,0-6.22,3.31l-4.27-9.18a33.29,33.29,0,0,1,18.42-5.21q9.79,0,15.09,4.36t5.28,13.06v7.93a5,5,0,0,0,.63,2.92,3,3,0,0,0,2.17,1v12.44c-1.19.26-2.32.45-3.38.58a23.54,23.54,0,0,1-2.84.19,10.56,10.56,0,0,1-6-1.43,6.74,6.74,0,0,1-2.69-4.24l-.31-1.48a18.86,18.86,0,0,1-6.29,5.33A16.52,16.52,0,0,1,525.16,210.6ZM529.59,200a9.12,9.12,0,0,0,2.72-.43,10.13,10.13,0,0,0,2.49-1.12,6.73,6.73,0,0,0,1.4-1.36,2.57,2.57,0,0,0,.54-1.52v-3a21.71,21.71,0,0,0-2.87-.78,14.33,14.33,0,0,0-2.81-.31,7.42,7.42,0,0,0-4.51,1.32,4,4,0,0,0-1.78,3.34,3.41,3.41,0,0,0,1.36,2.8A5.35,5.35,0,0,0,529.59,200Z" transform="translate(-34 -41)"/><path class="cls-1" d="M587.9,207.57a45.89,45.89,0,0,1-6.65,2.22,28.64,28.64,0,0,1-7,.89,17.9,17.9,0,0,1-4.74-.62,10.35,10.35,0,0,1-3.93-2,9.65,9.65,0,0,1-2.64-3.66,14.08,14.08,0,0,1-1-5.59V180.05h-5V168.93h5V156.1h14.77v12.83h8v11.12h-8v13.53a3.84,3.84,0,0,0,.86,2.84,3.26,3.26,0,0,0,2.33.81,10,10,0,0,0,2.49-.35,16.63,16.63,0,0,0,2.8-1Z" transform="translate(-34 -41)"/><path class="cls-1" d="M592.1,165.51V153.07h14.77v12.44Zm0,44.32v-40.9h14.77v40.9Z" transform="translate(-34 -41)"/><path class="cls-1" d="M634.47,210.6a24.93,24.93,0,0,1-9.68-1.74,21.21,21.21,0,0,1-7-4.67,19.28,19.28,0,0,1-4.27-6.76,23.22,23.22,0,0,1,0-16.1,19.28,19.28,0,0,1,4.27-6.76,21.05,21.05,0,0,1,7-4.67,27.54,27.54,0,0,1,19.32,0,20.83,20.83,0,0,1,7,4.67,19.31,19.31,0,0,1,4.28,6.76,23.37,23.37,0,0,1,0,16.1,19.31,19.31,0,0,1-4.28,6.76,21,21,0,0,1-7,4.67A25,25,0,0,1,634.47,210.6Zm-7.23-21.22a9.5,9.5,0,0,0,2,6.45,7,7,0,0,0,10.42,0,11.31,11.31,0,0,0,0-12.9,7,7,0,0,0-10.42,0A9.5,9.5,0,0,0,627.24,189.38Z" transform="translate(-34 -41)"/><path class="cls-1" d="M703.2,209.83H688.43v-23a6,6,0,0,0-1.36-4.39,4.32,4.32,0,0,0-3.15-1.36,6.57,6.57,0,0,0-4,1.63,9.71,9.71,0,0,0-3.11,4.2v22.94H662.07v-40.9h13.3V175a13.81,13.81,0,0,1,6.1-5.09,22.81,22.81,0,0,1,9.29-1.75,12.57,12.57,0,0,1,6.65,1.52,10.59,10.59,0,0,1,3.73,3.77,13.78,13.78,0,0,1,1.68,4.82,32.62,32.62,0,0,1,.38,4.67Z" transform="translate(-34 -41)"/><image width="1024" height="1024" transform="scale(0.21)" xlink:href="../../../../Documents/From%20Apollo%20Computer/hot%20mess/rustlogo%20white.png"/></svg>