<svg id="Layer_1" data-name="Layer 1" xmlns="http://www.w3.org/2000/svg" viewBox="0 0 1946.9 469.56"><defs><style>.cls-1,.cls-2,.cls-3{fill:#fff;}.cls-2{stroke:#fff;stroke-linecap:round;stroke-linejoin:round;stroke-width:3px;fill-rule:evenodd;}.cls-3{font-size:250px;font-family:Raleway-Black, Raleway;font-weight:800;}.cls-4{letter-spacing:-0.03em;}.cls-5{letter-spacing:0em;}.cls-6{letter-spacing:-0.01em;}</style></defs><path id="path2" class="cls-1" d="M328.49,81.44C208.7,81.44,111.21,179,111.21,298.72S208.75,516,328.49,516s217.28-97.54,217.28-217.28S448.23,81.44,328.49,81.44Zm-.32,19.3a14.5,14.5,0,1,1-.42,0Zm32.73,23.54a175.92,175.92,0,0,1,120.43,85.77l-16.87,38.06a13.15,13.15,0,0,0,6.62,17.24l32.45,14.39a175.75,175.75,0,0,1,.37,30.52H485.83c-1.79,0-2.52,1.19-2.52,2.94v8.27c0,19.49-11,23.77-20.64,24.83-9.2,1.05-19.36-3.87-20.64-9.47-5.43-30.48-14.44-37-28.69-48.22,17.7-11.22,36.09-27.81,36.09-50,0-23.95-16.41-39-27.58-46.42-15.72-10.35-33.1-12.41-37.79-12.41H197.44a175.92,175.92,0,0,1,98.41-55.53l22,23.07a13,13,0,0,0,18.39.42ZM157.73,230.09a14.5,14.5,0,1,1-.42,0Zm340.84.65a14.16,14.16,0,1,1-.42,0ZM184.66,233h24.92V345.38H159.29a175.88,175.88,0,0,1-5.7-67.16l30.8-13.7A13,13,0,0,0,191,247.33Zm104,1.2H348c3.08,0,21.65,3.54,21.65,17.47,0,11.53-14.25,15.67-26,15.67H288.59Zm0,80.72H334.1c4.14,0,22.2,1.19,27.95,24.27,1.79,7.08,5.79,30.15,8.5,37.55,2.71,8.28,13.7,24.82,25.42,24.82h74.19a175.84,175.84,0,0,1-16.27,18.85L423.69,414a13.05,13.05,0,0,0-15.49,10L401,457.44a175.89,175.89,0,0,1-146.68-.69l-7.17-33.46a13,13,0,0,0-15.45-10l-29.56,6.34a177.22,177.22,0,0,1-15.26-18H330.65c1.61,0,2.71-.27,2.71-1.79V349c0-1.47-1.1-1.79-2.71-1.79H288.59ZM222.31,431.38a14.16,14.16,0,1,1-.42,0ZM434,432a14.5,14.5,0,1,1-.42,0Z" transform="translate(-93.71 -63.94)"/><path id="path4" class="cls-2" d="M533.64,298.72c0,113.3-91.85,205.15-205.15,205.15S123.34,412,123.34,298.72h0c0-113.3,91.85-205.15,205.15-205.15S533.64,185.42,533.64,298.72Zm-3.86-19.81,32,19.81-32,19.81,27.49,25.7-35.22,13.19L544,388l-37.19,6.06,15.63,34.3L484.82,427l8.64,36.68-36.68-8.64,1.34,37.65-34.3-15.63-6.06,37.19-30.57-22L374,527.5,348.3,500l-19.81,32-19.81-32L283,527.5l-13.19-35.21-30.57,22-6.06-37.19L198.87,492.7l1.33-37.65-36.68,8.64L172.16,427l-37.65,1.34,15.63-34.3L113,388l22-30.57L99.72,344.23l27.48-25.7-32-19.81,32-19.81-27.48-25.7L134.93,240l-22-30.57,37.19-6.06L134.51,169.1l37.65,1.33-8.64-36.68,36.68,8.64-1.33-37.65,34.29,15.63,6.06-37.19,30.57,22L283,70l25.7,27.48,19.81-32,19.81,32L374,70l13.19,35.21,30.57-22,6.06,37.19,34.3-15.63-1.34,37.65,36.68-8.64-8.64,36.68,37.65-1.33-15.63,34.29L544,209.45l-22,30.57,35.22,13.19Z" transform="translate(-93.71 -63.94)"/><text class="cls-3" transform="translate(544.66 313.56)"><tspan class="cls-4">F</tspan><tspan class="cls-5" x="133.5" y="0">ound</tspan><tspan class="cls-6" x="767.99" y="0">a</tspan><tspan x="916.24" y="0">tion</tspan></text></svg>