<svg id="Layer_1" data-name="Layer 1" xmlns="http://www.w3.org/2000/svg" viewBox="0 0 1017.22 355.28"><defs><style>.cls-1,.cls-2,.cls-3{fill:#fff;}.cls-2{stroke:#fff;stroke-linecap:round;stroke-linejoin:round;stroke-width:3px;fill-rule:evenodd;}.cls-3{font-size:115px;font-family:Raleway-Black, Raleway;font-weight:800;}.cls-4{letter-spacing:-0.01em;}.cls-5{letter-spacing:0em;}.cls-6{letter-spacing:-0.01em;}.cls-7{letter-spacing:0em;}.cls-8{letter-spacing:-0.03em;}.cls-9{letter-spacing:-0.01em;}</style></defs><path id="path2" class="cls-1" d="M189.28,23.08c-90.45,0-164.06,73.65-164.06,164.06S98.87,351.2,189.28,351.2s164.06-73.65,164.06-164.06S279.69,23.08,189.28,23.08ZM189,37.66a10.62,10.62,0,1,1-.32,0Zm24.71,17.77a132.8,132.8,0,0,1,90.93,64.76l-12.74,28.74a9.93,9.93,0,0,0,5,13l24.5,10.87a131.33,131.33,0,0,1,.28,23H308.08c-1.35,0-1.91.9-1.91,2.22v6.25c0,14.72-8.29,17.94-15.58,18.74-6.94.8-14.61-2.91-15.58-7.15-4.1-23-10.9-27.9-21.66-36.41,13.36-8.46,27.24-21,27.24-37.72,0-18.09-12.39-29.47-20.82-35.06-11.87-7.81-25-9.37-28.53-9.37H90.33a132.75,132.75,0,0,1,74.31-41.92l16.62,17.42a9.79,9.79,0,0,0,13.88.31ZM60.34,135.32a10.94,10.94,0,1,1-.32,0Zm257.36.49a10.62,10.62,0,1,1-.32,0Zm-237,1.73H99.49v84.83h-38a132.77,132.77,0,0,1-4.3-50.71l23.25-10.34a9.82,9.82,0,0,0,5-13Zm78.51.91H204c2.32,0,16.34,2.67,16.34,13.18,0,8.72-10.76,11.84-19.61,11.84H159.15Zm0,60.94h34.32c3.13,0,16.77.9,21.11,18.33,1.35,5.34,4.37,22.76,6.42,28.35,2,6.25,10.34,18.74,19.19,18.74h56A132.18,132.18,0,0,1,284,279l-22.8-4.89a9.87,9.87,0,0,0-11.7,7.57L244.05,307a132.82,132.82,0,0,1-110.75-.52l-5.42-25.26a9.82,9.82,0,0,0-11.66-7.57L93.9,278.42a132.37,132.37,0,0,1-11.52-13.61H190.91c1.22,0,2.05-.2,2.05-1.35V225.07c0-1.11-.83-1.35-2.05-1.35H159.15Zm-50.08,87.92a10.62,10.62,0,1,1-.32,0Zm159.82.48a10.95,10.95,0,1,1-.31,0Z" transform="translate(-11.64 -9.5)"/><path id="path4" class="cls-2" d="M344.18,187.14a154.9,154.9,0,1,1-309.8,0h0a154.9,154.9,0,0,1,309.8,0Zm-2.92-15,24.16,15-24.16,15L362,221.5l-26.59,10L352,254.54l-28.08,4.58L335.74,285l-28.42-1,6.52,27.69-27.69-6.52,1,28.42-25.89-11.8-4.58,28.08L233.6,333.29l-10,26.59-19.4-20.76-15,24.16-15-24.16-19.4,20.76-10-26.59-23.08,16.59L117.3,321.8,91.4,333.6l1-28.42-27.7,6.52L71.24,284l-28.43,1,11.8-25.89-28.07-4.58,16.59-23.08-26.59-10L37.3,202.1l-24.16-15,24.16-15-20.76-19.4,26.59-10L26.54,119.74l28.07-4.58L42.81,89.27l28.43,1L64.71,62.58l27.7,6.52-1-28.43,25.9,11.81,4.58-28.08L145,41l10-26.59,19.4,20.76,15-24.16,15,24.16,19.4-20.76L233.6,41,256.68,24.4l4.58,28.08,25.89-11.81-1,28.43,27.69-6.52-6.52,27.69,28.42-1-11.8,25.89L352,119.74l-16.59,23.08,26.59,10Z" transform="translate(-11.64 -9.5)"/><text class="cls-3" transform="translate(372.19 165.84)"><tspan class="cls-4">R<tspan class="cls-5" x="76.59" y="0">u</tspan><tspan class="cls-6" x="149.96" y="0">s</tspan><tspan class="cls-7" x="206.88" y="0">t</tspan></tspan><tspan class="cls-8" x="0" y="110">F</tspan><tspan x="61.41" y="110">ound</tspan><tspan class="cls-9" x="353.28" y="110">a</tspan><tspan x="421.47" y="110">tion</tspan></text></svg>